<svg width="32" height="32" viewBox="0 0 32 32" fill="none" xmlns="http://www.w3.org/2000/svg">
<path d="M31.8376 14.9025C31.8376 13.8125 30.9476 12.9225 29.8576 12.9225H21.0576C19.9676 12.9225 19.0776 12.0325 19.0776 10.9425V2.14248C19.0776 1.05248 18.1876 0.162476 17.0976 0.162476H14.9026C13.8126 0.162476 12.9226 1.05248 12.9226 2.14248V10.94C12.9226 12.03 12.0326 12.92 10.9426 12.92H2.1426C1.0526 12.92 0.162598 13.81 0.162598 14.9V17.0975C0.162598 18.1875 1.0526 19.0775 2.1426 19.0775H10.9426C12.0326 19.0775 12.9226 19.9675 12.9226 21.0575V29.855C12.9226 30.945 13.8126 31.835 14.9026 31.835H17.0976C18.1876 31.835 19.0776 30.945 19.0776 29.855V21.0575C19.0776 19.9675 19.9676 19.0775 21.0576 19.0775H29.8576C30.9476 19.0775 31.8376 18.1875 31.8376 17.0975V14.9025Z" fill="#8DA249"/>
</svg>
