<svg width="46" height="46" viewBox="0 0 46 46" fill="none" xmlns="http://www.w3.org/2000/svg">
<path d="M45.7662 21.4224C45.7662 19.8555 44.4868 18.5761 42.92 18.5761H30.27C28.7031 18.5761 27.4237 17.2968 27.4237 15.7299V3.07989C27.4237 1.51302 26.1443 0.233643 24.5775 0.233643H21.4221C19.8553 0.233643 18.5759 1.51302 18.5759 3.07989V15.7263C18.5759 17.2932 17.2965 18.5725 15.7296 18.5725H3.07965C1.51277 18.5725 0.233398 19.8519 0.233398 21.4188V24.5777C0.233398 26.1446 1.51277 27.424 3.07965 27.424H15.7296C17.2965 27.424 18.5759 28.7033 18.5759 30.2702V42.9166C18.5759 44.4835 19.8553 45.7629 21.4221 45.7629H24.5775C26.1443 45.7629 27.4237 44.4835 27.4237 42.9166V30.2702C27.4237 28.7033 28.7031 27.424 30.27 27.424H42.92C44.4868 27.424 45.7662 26.1446 45.7662 24.5777V21.4224Z" fill="#FBE1B5"/>
</svg>
