<svg width="40" height="40" viewBox="0 0 40 40" fill="none" xmlns="http://www.w3.org/2000/svg">
<path d="M29.3335 8.54169C29.9245 8.54176 30.4447 8.73799 30.853 9.14618C31.2615 9.55466 31.4585 10.0754 31.4585 10.6667C31.4585 11.258 31.2615 11.7787 30.853 12.1872L23.0396 19.9997L30.853 27.8132C31.2615 28.2217 31.4585 28.7424 31.4585 29.3337C31.4584 29.9248 31.2614 30.4448 30.853 30.8532C30.4446 31.2616 29.9246 31.4586 29.3335 31.4587C28.7422 31.4587 28.2215 31.2617 27.813 30.8532L19.9995 23.0397L12.187 30.8532C11.7785 31.2617 11.2578 31.4587 10.6665 31.4587C10.0752 31.4587 9.55448 31.2617 9.146 30.8532C8.7378 30.4448 8.54158 29.9247 8.5415 29.3337C8.5415 28.7425 8.73762 28.2216 9.146 27.8132L16.9585 19.9997L9.146 12.1872C8.73751 11.7787 8.5415 11.258 8.5415 10.6667C8.5415 10.0754 8.73751 9.55467 9.146 9.14618C9.55448 8.73769 10.0752 8.54169 10.6665 8.54169C11.2578 8.54169 11.7785 8.73769 12.187 9.14618L19.9995 16.9587L27.813 9.14618C28.2215 8.7378 28.7423 8.54169 29.3335 8.54169Z" fill="#F89254" stroke="#F89254"/>
</svg>
