<svg width="89" height="89" viewBox="0 0 89 89" fill="none" xmlns="http://www.w3.org/2000/svg">
<path d="M40.7844 5.85914C41.9137 5.20543 43.1954 4.86121 44.5002 4.86121C45.805 4.86121 47.0867 5.20543 48.2159 5.85914L76.0284 21.9607C77.1539 22.6123 78.0883 23.5483 78.7379 24.675C79.3875 25.8017 79.7294 27.0793 79.7293 28.3798V60.6201C79.7288 61.92 79.3865 63.1969 78.737 64.3228C78.0875 65.4488 77.1534 66.3843 76.0284 67.0355L48.2159 83.1408C47.0867 83.7945 45.805 84.1387 44.5002 84.1387C43.1954 84.1387 41.9137 83.7945 40.7844 83.1408L12.9719 67.0392C11.8464 66.3877 10.912 65.4516 10.2624 64.3249C9.61283 63.1983 9.27093 61.9206 9.271 60.6201V28.3798C9.27158 27.08 9.61379 25.8031 10.2633 24.6771C10.9129 23.5511 11.8469 22.6157 12.9719 21.9644L40.7844 5.85914ZM16.6877 28.3798V28.3984L40.7992 42.3566C41.9248 43.0081 42.8592 43.9442 43.5088 45.0708C44.1583 46.1975 44.5002 47.4752 44.5002 48.7757V76.7217L72.3127 60.6201V28.3798L44.5002 12.2783L16.6877 28.3798ZM22.7397 45.6125C22.7397 43.5655 21.3008 41.0735 19.5282 40.05C17.7557 39.0265 16.3168 39.8571 16.3168 41.9041C16.3168 43.9511 17.7557 46.4431 19.5282 47.4666C21.3008 48.4901 22.7397 47.6595 22.7397 45.6125ZM32.3702 69.7092C34.1428 70.7327 35.5816 69.9058 35.5816 67.8551C35.5816 65.8081 34.1428 63.3161 32.3702 62.2926C30.5976 61.2691 29.1588 62.0997 29.1588 64.1467C29.1588 66.1937 30.5976 68.6857 32.3702 69.7092ZM19.5282 62.3C21.3008 63.3235 22.7397 62.4928 22.7397 60.4458C22.7397 58.3988 21.3008 55.9068 19.5282 54.8833C17.7557 53.8598 16.3168 54.6905 16.3168 56.7375C16.3168 58.7845 17.7557 61.2765 19.5282 62.3ZM32.3702 54.8833C34.1428 55.9105 35.5816 55.0798 35.5779 53.0291C35.5779 50.9821 34.1428 48.4938 32.3665 47.4666C30.5939 46.4431 29.1551 47.2738 29.1551 49.3208C29.1551 51.3715 30.5939 53.8598 32.3702 54.8833ZM55.2469 29.6666C57.0195 28.6431 57.0195 26.9818 55.2469 25.9583C53.4743 24.9348 50.5967 24.9348 48.8241 25.9583C47.0478 26.9818 47.0478 28.6431 48.8241 29.6666C50.5967 30.6901 53.4743 30.6901 55.2469 29.6666ZM37.4469 25.9583C39.2195 26.9818 39.2195 28.6431 37.4469 29.6666C35.6743 30.6901 32.7967 30.6901 31.0241 29.6666C29.2515 28.6431 29.2515 26.9818 31.0241 25.9583C32.7967 24.9348 35.6743 24.9348 37.4469 25.9583ZM59.315 56.9229C61.5325 55.6398 63.3311 52.5285 63.3311 49.9698C63.3311 47.411 61.5325 46.3727 59.3187 47.6521C57.1048 48.9314 55.3025 52.0427 55.3025 54.6052C55.3025 57.1639 57.1011 58.2023 59.315 56.9229Z" fill="#FBE1B5"/>
</svg>
