<svg width="100" height="100" viewBox="0 0 100 100" fill="none" xmlns="http://www.w3.org/2000/svg">
<path d="M29.1667 87.5V79.1667H45.8333V66.25C42.4306 65.4861 39.3931 64.0458 36.7208 61.9292C34.0486 59.8125 32.0861 57.1556 30.8333 53.9583C25.625 53.3333 21.2681 51.0597 17.7625 47.1375C14.2569 43.2153 12.5028 38.6139 12.5 33.3333V29.1667C12.5 26.875 13.3167 24.9139 14.95 23.2833C16.5833 21.6528 18.5444 20.8361 20.8333 20.8333H29.1667V12.5H70.8333V20.8333H79.1667C81.4583 20.8333 83.4208 21.65 85.0542 23.2833C86.6875 24.9167 87.5028 26.8778 87.5 29.1667V33.3333C87.5 38.6111 85.7458 43.2125 82.2375 47.1375C78.7292 51.0625 74.3722 53.3361 69.1667 53.9583C67.9167 57.1528 65.9556 59.8097 63.2833 61.9292C60.6111 64.0486 57.5722 65.4889 54.1667 66.25V79.1667H70.8333V87.5H29.1667ZM29.1667 45V29.1667H20.8333V33.3333C20.8333 35.9722 21.5972 38.3514 23.125 40.4708C24.6528 42.5903 26.6667 44.1 29.1667 45ZM58.8542 54.6875C61.2847 52.2569 62.5 49.3056 62.5 45.8333V20.8333H37.5V45.8333C37.5 49.3056 38.7153 52.2569 41.1458 54.6875C43.5764 57.1181 46.5278 58.3333 50 58.3333C53.4722 58.3333 56.4236 57.1181 58.8542 54.6875ZM70.8333 45C73.3333 44.0972 75.3472 42.5861 76.875 40.4667C78.4028 38.3472 79.1667 35.9694 79.1667 33.3333V29.1667H70.8333V45Z" fill="#FBE1B5"/>
</svg>
