<svg width="15" height="15" viewBox="0 0 15 15" fill="none" xmlns="http://www.w3.org/2000/svg">
<path d="M2.74783 4.83462L7.14001 9.15744C7.23585 9.25224 7.36521 9.30542 7.50001 9.30542C7.63482 9.30542 7.76418 9.25224 7.86001 9.15744L12.2531 4.83556C12.3496 4.7408 12.4794 4.68771 12.6145 4.68771C12.7497 4.68771 12.8795 4.7408 12.976 4.83556C13.0234 4.88185 13.0612 4.93718 13.0869 4.99828C13.1127 5.05939 13.126 5.12503 13.126 5.19134C13.126 5.25766 13.1127 5.3233 13.0869 5.3844C13.0612 5.4455 13.0234 5.50083 12.976 5.54712L8.5847 9.869C8.29546 10.153 7.9063 10.3121 7.50095 10.3121C7.0956 10.3121 6.70644 10.153 6.4172 9.869L2.02595 5.54712C1.97832 5.50082 1.94047 5.44543 1.91461 5.38424C1.88876 5.32305 1.87544 5.2573 1.87544 5.19087C1.87544 5.12445 1.88876 5.05869 1.91461 4.9975C1.94047 4.93631 1.97832 4.88093 2.02595 4.83462C2.12238 4.73986 2.25216 4.68677 2.38736 4.68677C2.52255 4.68677 2.65234 4.73986 2.74876 4.83462" fill="#F89254"/>
</svg>
