<svg width="20" height="20" viewBox="0 0 20 20" fill="none" xmlns="http://www.w3.org/2000/svg">
<mask id="path-1-outside-1_398_734" maskUnits="userSpaceOnUse" x="5.24902" y="1.49872" width="10" height="18" fill="black">
<rect fill="white" x="5.24902" y="1.49872" width="10" height="18"/>
<path d="M6.44616 16.3363L12.2099 10.48C12.3363 10.3522 12.4072 10.1797 12.4072 10C12.4072 9.82026 12.3363 9.64778 12.2099 9.52L6.44741 3.6625C6.32107 3.53393 6.25027 3.36089 6.25027 3.18063C6.25027 3.00037 6.32107 2.82732 6.44741 2.69875C6.50914 2.63544 6.58291 2.58513 6.66438 2.55077C6.74585 2.51642 6.83337 2.49872 6.92179 2.49872C7.01021 2.49872 7.09773 2.51642 7.1792 2.55077C7.26067 2.58513 7.33444 2.63544 7.39616 2.69875L13.1587 8.55375C13.5373 8.93941 13.7495 9.45828 13.7495 9.99875C13.7495 10.5392 13.5373 11.0581 13.1587 11.4438L7.39616 17.2988C7.33442 17.3623 7.26058 17.4127 7.17899 17.4472C7.0974 17.4817 7.00973 17.4994 6.92116 17.4994C6.8326 17.4994 6.74492 17.4817 6.66334 17.4472C6.58175 17.4127 6.5079 17.3623 6.44616 17.2988C6.31982 17.1702 6.24902 16.9971 6.24902 16.8169C6.24902 16.6366 6.31982 16.4636 6.44616 16.335"/>
</mask>
<path d="M6.44616 16.3363L12.2099 10.48C12.3363 10.3522 12.4072 10.1797 12.4072 10C12.4072 9.82026 12.3363 9.64778 12.2099 9.52L6.44741 3.6625C6.32107 3.53393 6.25027 3.36089 6.25027 3.18063C6.25027 3.00037 6.32107 2.82732 6.44741 2.69875C6.50914 2.63544 6.58291 2.58513 6.66438 2.55077C6.74585 2.51642 6.83337 2.49872 6.92179 2.49872C7.01021 2.49872 7.09773 2.51642 7.1792 2.55077C7.26067 2.58513 7.33444 2.63544 7.39616 2.69875L13.1587 8.55375C13.5373 8.93941 13.7495 9.45828 13.7495 9.99875C13.7495 10.5392 13.5373 11.0581 13.1587 11.4438L7.39616 17.2988C7.33442 17.3623 7.26058 17.4127 7.17899 17.4472C7.0974 17.4817 7.00973 17.4994 6.92116 17.4994C6.8326 17.4994 6.74492 17.4817 6.66334 17.4472C6.58175 17.4127 6.5079 17.3623 6.44616 17.2988C6.31982 17.1702 6.24902 16.9971 6.24902 16.8169C6.24902 16.6366 6.31982 16.4636 6.44616 16.335" fill="#2E434F"/>
<path d="M12.2099 10.48L11.499 9.7767L11.4972 9.77855L12.2099 10.48ZM12.4072 10H11.4072H12.4072ZM12.2099 9.52L11.497 10.2213L11.499 10.2233L12.2099 9.52ZM6.44741 3.6625L5.73416 4.36341L5.73455 4.3638L6.44741 3.6625ZM6.25027 3.18063H7.25027H6.25027ZM6.44741 2.69875L7.16067 3.39967L7.16345 3.39681L6.44741 2.69875ZM6.92179 2.49872V1.49872V2.49872ZM7.39616 2.69875L6.68012 3.39682L6.68345 3.40021L7.39616 2.69875ZM13.1587 8.55375L13.8722 7.85315L13.8714 7.8523L13.1587 8.55375ZM13.7495 9.99875H14.7495H13.7495ZM13.1587 11.4438L13.8714 12.1452L13.8722 12.1444L13.1587 11.4438ZM7.39616 17.2988L6.68344 16.5973L6.67918 16.6017L7.39616 17.2988ZM6.92116 17.4994V18.4994V17.4994ZM6.44616 17.2988L7.16316 16.6017L7.15941 16.5978L6.44616 17.2988ZM6.24902 16.8169H5.24902H6.24902ZM6.44616 16.3363L7.15888 17.0377L12.9226 11.1815L12.2099 10.48L11.4972 9.77855L5.73345 15.6348L6.44616 16.3363ZM12.2099 10.48L12.9208 11.1833C13.2324 10.8683 13.4072 10.4431 13.4072 10H12.4072H11.4072C11.4072 9.91638 11.4402 9.83615 11.499 9.77671L12.2099 10.48ZM12.4072 10H13.4072C13.4072 9.5569 13.2324 9.1317 12.9208 8.81671L12.2099 9.52L11.499 10.2233C11.4402 10.1639 11.4072 10.0836 11.4072 10H12.4072ZM12.2099 9.52L12.9228 8.8187L7.16028 2.9612L6.44741 3.6625L5.73455 4.3638L11.497 10.2213L12.2099 9.52ZM6.44741 3.6625L7.16066 2.96159C7.21809 3.02003 7.25027 3.09869 7.25027 3.18063H6.25027H5.25027C5.25027 3.62308 5.42404 4.04783 5.73416 4.36341L6.44741 3.6625ZM6.25027 3.18063H7.25027C7.25027 3.26256 7.21809 3.34122 7.16066 3.39966L6.44741 2.69875L5.73416 1.99784C5.42404 2.31342 5.25027 2.73818 5.25027 3.18063H6.25027ZM6.44741 2.69875L7.16345 3.39681C7.13201 3.42907 7.09443 3.4547 7.05292 3.4722L6.66438 2.55077L6.27583 1.62934C6.07138 1.71555 5.88626 1.84182 5.73138 2.00069L6.44741 2.69875ZM6.66438 2.55077L7.05292 3.4722C7.01142 3.4897 6.96683 3.49872 6.92179 3.49872V2.49872V1.49872C6.69991 1.49872 6.48027 1.54313 6.27583 1.62934L6.66438 2.55077ZM6.92179 2.49872V3.49872C6.87674 3.49872 6.83216 3.4897 6.79065 3.4722L7.1792 2.55077L7.56775 1.62934C7.3633 1.54313 7.14367 1.49872 6.92179 1.49872V2.49872ZM7.1792 2.55077L6.79065 3.4722C6.74915 3.4547 6.71157 3.42907 6.68013 3.39681L7.39616 2.69875L8.1122 2.00069C7.95732 1.84182 7.77219 1.71555 7.56775 1.62934L7.1792 2.55077ZM7.39616 2.69875L6.68345 3.40021L12.446 9.25521L13.1587 8.55375L13.8714 7.8523L8.10888 1.9973L7.39616 2.69875ZM13.1587 8.55375L12.4451 9.25436C12.6402 9.45303 12.7495 9.72033 12.7495 9.99875H13.7495H14.7495C14.7495 9.19624 14.4345 8.42578 13.8722 7.85315L13.1587 8.55375ZM13.7495 9.99875H12.7495C12.7495 10.2772 12.6402 10.5445 12.4451 10.7431L13.1587 11.4438L13.8722 12.1444C14.4345 11.5717 14.7495 10.8013 14.7495 9.99875H13.7495ZM13.1587 11.4438L12.446 10.7423L6.68345 16.5973L7.39616 17.2988L8.10888 18.0002L13.8714 12.1452L13.1587 11.4438ZM7.39616 17.2988L6.67918 16.6017C6.71063 16.5693 6.74825 16.5436 6.78982 16.526L7.17899 17.4472L7.56816 18.3684C7.7729 18.2819 7.95821 18.1552 8.11314 17.9958L7.39616 17.2988ZM7.17899 17.4472L6.78982 16.526C6.83138 16.5085 6.87604 16.4994 6.92116 16.4994V17.4994V18.4994C7.14342 18.4994 7.36343 18.4549 7.56816 18.3684L7.17899 17.4472ZM6.92116 17.4994V16.4994C6.96629 16.4994 7.01095 16.5085 7.05251 16.526L6.66334 17.4472L6.27417 18.3684C6.4789 18.4549 6.6989 18.4994 6.92116 18.4994V17.4994ZM6.66334 17.4472L7.05251 16.526C7.09408 16.5436 7.1317 16.5693 7.16315 16.6017L6.44616 17.2988L5.72918 17.9958C5.88411 18.1552 6.06943 18.2819 6.27417 18.3684L6.66334 17.4472ZM6.44616 17.2988L7.15941 16.5978C7.21684 16.6563 7.24902 16.7349 7.24902 16.8169H6.24902H5.24902C5.24902 17.2593 5.4228 17.6841 5.73291 17.9997L6.44616 17.2988ZM6.24902 16.8169H7.24902C7.24902 16.8988 7.21684 16.9775 7.15941 17.0359L6.44616 16.335L5.73291 15.6341C5.4228 15.9497 5.24902 16.3744 5.24902 16.8169H6.24902Z" fill="#2E434F" mask="url(#path-1-outside-1_398_734)"/>
</svg>
