<svg width="412" height="281" viewBox="0 0 412 281" fill="none" xmlns="http://www.w3.org/2000/svg">
<path d="M6.10352e-05 2.99999C6.10352e-05 -6.94113 8.05894 -15 18.0001 -15H394C403.941 -15 412 -6.94112 412 3V157C412 166.941 403.941 175 394 175H18.0001C8.05893 175 6.10352e-05 166.941 6.10352e-05 157V2.99999Z" fill="#8DA249"/>
<path d="M232.669 273.214C216.079 282.412 195.921 282.412 179.332 273.214L21.3054 185.602C-28.3517 158.071 -8.8045 82.5 47.9738 82.5H364.026C420.805 82.5 440.352 158.071 390.695 185.602L232.669 273.214Z" fill="#8DA249"/>
</svg>
