<svg width="24" height="24" viewBox="0 0 24 24" fill="none" xmlns="http://www.w3.org/2000/svg">
<path d="M20.955 11.104C20.7856 9.41066 20.1395 7.80007 19.0917 6.45907C18.044 5.11807 16.6375 4.1016 15.0354 3.5276C13.4334 2.95359 11.7014 2.84557 10.0404 3.21605C8.37945 3.58654 6.85756 4.42035 5.65129 5.62077C4.44502 6.82119 3.60381 8.33901 3.22526 9.99816C2.8467 11.6573 2.9463 13.3898 3.51251 14.9946C4.07872 16.5994 5.08833 18.0109 6.42422 19.0651C7.76012 20.1194 9.36754 20.7733 11.06 20.951M9.00003 9.99999H9.01003M15 9.99999H15.01" stroke="#8DA249" stroke-width="2" stroke-linecap="round" stroke-linejoin="round"/>
<path d="M9.5 15C10.158 15.672 11.06 16 12 16C12.126 16 12.2513 15.994 12.376 15.982M18.42 15.61C18.615 15.415 18.8465 15.2603 19.1013 15.1547C19.3561 15.0492 19.6292 14.9949 19.905 14.9949C20.1808 14.9949 20.4539 15.0492 20.7087 15.1547C20.9635 15.2603 21.195 15.415 21.39 15.61C21.585 15.805 21.7397 16.0365 21.8452 16.2913C21.9508 16.5461 22.0051 16.8192 22.0051 17.095C22.0051 17.3708 21.9508 17.6439 21.8452 17.8987C21.7397 18.1535 21.585 18.385 21.39 18.58L18 22H15V19L18.42 15.61Z" stroke="#8DA249" stroke-width="2" stroke-linecap="round" stroke-linejoin="round"/>
</svg>
