<svg width="412" height="558" viewBox="0 0 412 558" fill="none" xmlns="http://www.w3.org/2000/svg">
<path d="M444.278 36.6146L416.374 14.1636L407.611 67.9673L444.278 36.6146Z" fill="#759DA9"/>
<path d="M837 33.9839C802.5 51.8503 766.359 64.7695 729.717 74.3328C711.383 79.0594 692.844 82.683 674.202 85.2196C655.56 87.7977 636.818 89.1336 618.059 89.2214C599.285 89.1441 580.535 87.5652 561.929 84.4949C552.627 82.9194 543.389 80.95 534.203 78.5709C525.017 76.1919 515.921 73.3402 506.94 69.9686C497.959 66.597 489.119 62.737 480.434 58.4044C471.748 54.0717 463.229 49.2191 454.902 43.9254C438.329 33.2082 422.668 20.4887 408.15 5.95557C437.863 33.9718 471.589 54.899 507.581 67.6526C543.351 80.5403 580.763 86.0704 618.059 86.0704C655.355 86.0704 692.677 80.9185 729.319 72.0168C747.649 67.5739 765.811 62.1804 783.807 55.8363C801.782 49.5185 819.59 42.4129 837 33.9839Z" fill="#2E434F"/>
<path d="M-6.40674 51.7397L25.5267 63.5719L-2.41667 106.379L-6.40674 51.7397Z" fill="#759DA9"/>
<path d="M57.8462 73.9702L90.5494 82.0053L66.0701 127.9L57.8462 73.9702Z" fill="#8DA249"/>
<path d="M123.547 88.0549L156.777 91.5526L136.621 140.519L123.547 88.0549Z" fill="#F89254"/>
<path d="M189.929 92.64L223.273 91.2063L208.057 142.789L189.929 92.64Z" fill="#F89254"/>
<path d="M256.092 85.9755L288.847 78.2397L280.302 132.091L256.092 85.9755Z" fill="#2E434F"/>
<path d="M319.971 67.0384L350.853 51.5354L351.096 106.411L319.971 67.0384Z" fill="#759DA9"/>
<path d="M380.131 31.5262L407.164 7.54688L417.915 60.7992L380.131 31.5262Z" fill="#8DA249"/>
<path d="M57.8448 73.9861L55.189 78.4291L53.4057 81.4225L51.1861 85.1565L49.4156 88.1342L47.1832 91.8839L45.4127 94.8617L43.1803 98.5956L41.4098 101.573L39.1902 105.323L37.4069 108.301L35.1874 112.035L33.4168 115.012L31.4795 118.274L31.0305 114.272L30.6328 110.617L30.1324 106.032L29.7347 102.377L29.2215 97.7764L28.8238 94.1212L28.3234 89.5207L27.9257 85.8655L27.4125 81.2807L27.0276 77.6255L26.5144 73.0408L26.1038 69.3699L25.5137 63.9028L57.8448 73.9861Z" fill="#F89254"/>
<path d="M55.1897 78.4293L53.4063 81.4228L26.515 73.0411L26.1045 69.3701L55.1897 78.4293Z" fill="#F89254"/>
<path d="M51.1883 85.1564L49.4178 88.1342L27.4147 81.2807L27.0298 77.6255L51.1883 85.1564Z" fill="#F89254"/>
<path d="M47.1833 91.8839L45.4128 94.8617L28.3235 89.5207L27.9258 85.8655L47.1833 91.8839Z" fill="#F89254"/>
<path d="M43.1813 98.5958L41.4108 101.574L29.2224 97.7765L28.8247 94.1213L43.1813 98.5958Z" fill="#F89254"/>
<path d="M39.1904 105.323L37.4071 108.301L30.1326 106.032L29.7349 102.377L39.1904 105.323Z" fill="#F89254"/>
<path d="M35.1879 112.035L33.4174 115.012L31.031 114.272L30.6333 110.617L35.1879 112.035Z" fill="#F89254"/>
<path d="M123.547 88.0711L121.276 92.8292L119.762 96.0275L117.863 100.029L116.349 103.228L114.45 107.214L112.936 110.412L111.038 114.414L109.524 117.596L107.625 121.614L106.098 124.796L104.212 128.798L102.685 131.981L101.043 135.463L100.261 131.54L99.555 127.963L98.6697 123.457L97.9769 119.881L97.0788 115.359L96.3732 111.783L95.488 107.277L94.7823 103.684L93.897 99.1943L93.1914 95.6021L92.3062 91.0961L91.6005 87.504L90.5356 82.1472L123.547 88.0711Z" fill="#2E434F"/>
<path d="M121.275 92.8299L119.762 96.0282L92.3057 91.0968L91.6001 87.5046L121.275 92.8299Z" fill="#F89254"/>
<path d="M117.864 100.029L116.35 103.228L93.898 99.1942L93.1924 95.6021L117.864 100.029Z" fill="#F89254"/>
<path d="M114.451 107.214L112.937 110.412L95.4884 107.277L94.7827 103.685L114.451 107.214Z" fill="#F89254"/>
<path d="M111.038 114.413L109.524 117.596L97.0787 115.359L96.373 111.782L111.038 114.413Z" fill="#F89254"/>
<path d="M107.626 121.614L106.099 124.797L98.6703 123.458L97.9775 119.881L107.626 121.614Z" fill="#F89254"/>
<path d="M104.212 128.798L102.685 131.98L100.26 131.539L99.5547 127.963L104.212 128.798Z" fill="#F89254"/>
<path d="M189.903 92.546L188.094 97.6034L186.888 100.991L185.387 105.229L184.181 108.616L182.667 112.854L181.461 116.242L179.96 120.48L178.754 123.867L177.253 128.121L176.047 131.493L174.533 135.747L173.327 139.118L172.018 142.821L170.876 139.039L169.837 135.573L168.528 131.225L167.502 127.774L166.193 123.41L165.141 119.944L163.845 115.612L162.806 112.145L161.498 107.797L160.471 104.347L159.163 99.9982L158.111 96.5163L156.558 91.3486L189.903 92.546Z" fill="#759DA9"/>
<path d="M188.095 97.6035L186.889 100.991L159.163 99.9982L158.111 96.5164L188.095 97.6035Z" fill="#F89254"/>
<path d="M185.386 105.228L184.18 108.616L161.497 107.797L160.471 104.346L185.386 105.228Z" fill="#F89254"/>
<path d="M182.666 112.854L181.46 116.241L163.844 115.611L162.805 112.145L182.666 112.854Z" fill="#F89254"/>
<path d="M179.959 120.479L178.753 123.867L166.193 123.41L165.141 119.944L179.959 120.479Z" fill="#F89254"/>
<path d="M177.253 128.121L176.047 131.493L168.528 131.225L167.502 127.775L177.253 128.121Z" fill="#F89254"/>
<path d="M174.532 135.747L173.326 139.118L170.876 139.04L169.836 135.573L174.532 135.747Z" fill="#F89254"/>
<path d="M256.425 86.2439L255.219 91.5534L254.411 95.114L253.397 99.5885L252.589 103.133L251.588 107.592L250.78 111.153L249.766 115.611L248.958 119.172L247.957 123.647L247.149 127.191L246.136 131.65L245.327 135.211L244.455 139.087L242.89 135.542L241.465 132.296L239.682 128.216L238.258 124.97L236.475 120.874L235.038 117.628L233.254 113.548L231.843 110.302L230.047 106.221L228.623 102.976L226.839 98.8953L225.403 95.6339L223.286 90.7814L256.425 86.2439Z" fill="#8DA249"/>
<path d="M255.218 91.553L254.41 95.1136L226.839 98.8949L225.402 95.6336L255.218 91.553Z" fill="#F89254"/>
<path d="M253.397 99.5881L252.589 103.133L230.047 106.221L228.623 102.975L253.397 99.5881Z" fill="#F89254"/>
<path d="M251.588 107.592L250.78 111.153L233.255 113.548L231.843 110.302L251.588 107.592Z" fill="#F89254"/>
<path d="M249.766 115.611L248.957 119.172L236.474 120.874L235.037 117.628L249.766 115.611Z" fill="#F89254"/>
<path d="M247.957 123.647L247.148 127.192L239.681 128.216L238.257 124.97L247.957 123.647Z" fill="#F89254"/>
<path d="M246.135 131.649L245.327 135.21L242.889 135.541L241.465 132.295L246.135 131.649Z" fill="#F89254"/>
<path d="M320.548 66.834L320.125 72.3325L319.843 76.0192L319.496 80.6355L319.214 84.3064L318.868 88.9227L318.585 92.5936L318.239 97.1941L317.957 100.865L317.61 105.497L317.328 109.168L316.982 113.784L316.699 117.455L316.392 121.473L314.339 118.306L312.478 115.423L310.131 111.799L308.257 108.916L305.91 105.276L304.036 102.393L301.689 98.7696L299.828 95.8707L297.468 92.247L295.607 89.3638L293.259 85.7401L291.373 82.8412L288.589 78.5243L320.548 66.834Z" fill="#8DA249"/>
<path d="M320.126 72.3318L319.843 76.0185L293.26 85.7394L291.374 82.8405L320.126 72.3318Z" fill="#F89254"/>
<path d="M319.497 80.635L319.214 84.3059L297.468 92.2465L295.607 89.3633L319.497 80.635Z" fill="#F89254"/>
<path d="M318.868 88.9219L318.585 92.5928L301.688 98.7688L299.828 95.8699L318.868 88.9219Z" fill="#F89254"/>
<path d="M318.24 97.1938L317.958 100.865L305.911 105.276L304.038 102.393L318.24 97.1938Z" fill="#F89254"/>
<path d="M317.611 105.496L317.329 109.167L310.131 111.798L308.258 108.915L317.611 105.496Z" fill="#F89254"/>
<path d="M316.982 113.784L316.7 117.455L314.339 118.306L312.479 115.423L316.982 113.784Z" fill="#F89254"/>
<path d="M380.17 31.8098L380.645 37.2926L380.953 40.9793L381.35 45.5798L381.671 49.2507L382.069 53.8512L382.377 57.5222L382.775 62.1227L383.082 65.7936L383.48 70.4099L383.801 74.0808L384.199 78.6813L384.507 82.3523L384.853 86.3698L382.338 83.7702L380.042 81.3912L377.168 78.3977L374.871 76.0187L371.985 73.0252L369.675 70.662L366.801 67.6685L364.505 65.2895L361.618 62.296L359.322 59.917L356.448 56.9392L354.138 54.5445L350.713 50.9838L380.17 31.8098Z" fill="#F89254"/>
<path d="M380.644 37.2922L380.952 40.9789L356.447 56.9389L354.138 54.5441L380.644 37.2922Z" fill="#F89254"/>
<path d="M381.35 45.5801L381.671 49.251L361.618 62.2963L359.321 59.9172L381.35 45.5801Z" fill="#F89254"/>
<path d="M382.068 53.8513L382.376 57.5223L366.8 67.6686L364.504 65.2895L382.068 53.8513Z" fill="#F89254"/>
<path d="M382.774 62.1228L383.081 65.7937L371.984 73.0254L369.674 70.6621L382.774 62.1228Z" fill="#F89254"/>
<path d="M383.479 70.4102L383.8 74.0811L377.167 78.398L374.871 76.019L383.479 70.4102Z" fill="#F89254"/>
<path d="M384.198 78.6804L384.506 82.3514L382.338 83.7693L380.041 81.3903L384.198 78.6804Z" fill="#F89254"/>
<path d="M-13 48.6833C4.66665 56.2616 22.6925 62.5006 40.8852 67.9046C59.0779 73.3086 77.386 77.8776 95.8353 81.4225C132.734 88.5438 170.158 92.0099 207.455 90.0878C244.751 88.1657 281.932 80.9971 317.316 66.4551C352.872 51.9794 385.898 29.4375 414.682 0C400.626 15.2353 385.364 28.7048 369.123 40.2071C360.976 45.9104 352.65 51.2357 344.079 55.9622C335.509 60.6887 326.81 64.9269 317.945 68.7396C309.08 72.5524 300.099 75.924 291.002 78.6969C281.906 81.4698 272.733 84.0221 263.482 85.96C244.99 89.8934 226.309 92.3458 207.557 93.3019C188.809 94.1373 170.037 93.7271 151.324 92.073C132.618 90.4974 113.977 87.7561 95.5146 83.8645C58.5775 76.0342 22.0511 64.8639 -13 48.6833Z" fill="#2E434F"/>
<path d="M36.3925 280.709C36.5336 287.232 35.2763 293.644 34.776 300.088C34.4766 303.302 34.2799 306.526 34.1858 309.761C34.0118 312.973 34.102 316.198 34.4552 319.388C35.9435 332.165 40.0618 344.297 41.9606 357.2C42.4317 360.441 42.6849 363.724 42.7176 367.016C42.7397 370.33 42.39 373.633 41.6784 376.831C40.1129 383.076 38.1702 389.169 35.8665 395.06C34.7945 397.996 33.9358 401.044 33.3005 404.166C32.6698 407.27 32.6698 410.516 33.3005 413.619C33.5997 415.17 34.1549 416.628 34.9317 417.905C35.7085 419.181 36.6904 420.248 37.8166 421.04C40.1937 422.509 42.8925 423.001 45.5145 422.442C42.8906 423.154 40.1488 422.783 37.714 421.387C36.5157 420.606 35.4604 419.532 34.6131 418.232C33.7658 416.931 33.1444 415.431 32.7873 413.824C32.0467 410.613 31.9893 407.223 32.6205 403.977C33.2111 400.777 34.0267 397.646 35.0582 394.619C37.0083 388.569 39.3434 382.708 40.6392 376.5C41.8342 370.253 41.8824 363.757 40.7803 357.484C39.8694 351.182 38.4196 344.88 37.0083 338.578C35.4459 332.354 34.2791 325.991 33.5186 319.545C33.2217 316.28 33.1873 312.987 33.416 309.714C33.5956 306.469 33.8394 303.207 34.1986 299.978C34.8658 293.518 36.2385 287.216 36.3925 280.709Z" fill="#F89254"/>
<path d="M65.8243 224.368C63.5548 235.013 59.2686 244.849 53.3152 253.074C45.2838 264.622 36.752 271.224 36.8931 272.374C37.3293 275.651 40.216 280.456 40.062 281.559C39.9081 282.662 37.7912 283.938 35.9437 284.08C34.0962 284.222 31.851 283.324 31.5815 282.237C31.3121 281.149 33.6728 275.934 33.7626 272.626C33.7626 270.294 -3.20009 251.687 -2.95632 209.038C-2.84085 187.139 7.89771 177.449 17.2122 173.148C21.2936 171.282 25.5701 170.136 29.9137 169.745C34.9686 169.351 62.7323 168.658 66.6198 203.492C67.4306 210.45 67.1607 217.534 65.8243 224.368Z" fill="#F89254"/>
<path opacity="0.1" d="M36.8931 272.437C37.3293 275.715 40.216 280.52 40.062 281.623C39.9081 282.726 37.7912 284.002 35.9437 284.144C34.0962 284.285 31.851 283.387 31.5815 282.3C31.3121 281.213 33.6728 275.998 33.7626 272.69C33.7626 270.358 -3.20009 251.751 -2.95632 209.102C-2.84085 187.202 7.89771 177.513 17.2122 173.212C9.25767 182.665 -0.210739 200.972 8.79579 228.733C17.1223 254.351 37.9323 260.495 53.3152 253.137C45.2838 264.686 36.752 271.287 36.8931 272.437Z" fill="black"/>
<path d="M58.6789 188.713C61.1294 194.385 59.8079 201.144 55.7152 203.823C51.6225 206.501 46.3238 204.059 43.8604 198.387C41.3971 192.715 42.7314 185.941 46.8241 183.278C50.9168 180.615 56.2156 183.042 58.6789 188.713Z" fill="#F89254"/>
<path d="M110.267 328.242C112.121 340.925 113.215 353.758 113.538 366.638C113.611 369.87 113.542 373.104 113.333 376.327C113.179 377.903 113.051 379.573 112.807 381.18C112.563 382.787 112.281 384.331 111.96 385.906C110.677 392.208 108.92 398.274 107.354 404.387C105.693 410.451 104.407 416.661 103.505 422.962C102.631 429.247 102.532 435.658 103.21 441.979C103.839 448.281 104.968 454.583 105.943 460.885C106.543 464.055 106.678 467.331 106.341 470.558C106.091 472.172 105.493 473.674 104.609 474.907C103.713 476.097 102.664 477.097 101.504 477.869C102.627 477.027 103.628 475.962 104.468 474.718C105.287 473.489 105.827 472.016 106.033 470.448C106.264 467.273 106.038 464.074 105.366 460.995C104.249 454.693 103.043 448.391 102.287 442.089C101.465 435.661 101.491 429.112 102.364 422.694C103.262 416.315 104.549 410.027 106.212 403.883C107.778 397.723 109.561 391.688 110.882 385.512C111.216 383.937 111.498 382.361 111.742 380.786C111.986 379.21 112.114 377.635 112.281 376.059C112.499 372.908 112.602 369.757 112.602 366.496C112.602 360.099 112.332 353.671 111.909 347.275C111.486 340.878 110.895 334.623 110.267 328.242Z" fill="#F89254"/>
<path d="M145.024 277.038C141.945 287.392 136.916 296.705 130.347 304.216C121.468 314.772 112.449 320.365 112.513 321.546C112.693 324.855 115.182 329.975 114.951 330.999C114.72 332.024 112.5 333.095 110.653 333.032C108.805 332.969 106.637 331.787 106.458 330.684C106.278 329.582 109.024 324.666 109.37 321.373C109.614 319.057 74.1906 296.165 77.7188 253.784C79.5406 232.01 90.9848 223.597 100.582 220.414C103.252 219.528 105.984 218.948 108.741 218.681C110.32 218.516 111.905 218.458 113.488 218.508C118.543 218.697 146.243 221.249 147.423 256.32C147.69 263.35 146.876 270.378 145.024 277.038Z" fill="#759DA9"/>
<path d="M112.513 321.514C112.693 324.823 115.182 329.943 114.951 330.968C114.72 331.992 112.5 333.063 110.653 333C108.805 332.937 106.637 331.755 106.458 330.652C106.278 329.55 109.024 324.634 109.37 321.341C109.614 319.025 74.1906 296.133 77.7188 253.752C79.5406 231.978 90.9848 223.565 100.582 220.382C91.9214 228.922 81.093 245.984 87.9185 274.675C94.2179 301.143 114.463 309.682 130.347 304.152C121.468 314.771 112.449 320.364 112.513 321.514Z" fill="#4B8DB2"/>
<path d="M139.609 238.721C141.61 244.661 139.775 251.231 135.49 253.421C131.205 255.611 126.124 252.554 124.11 246.63C122.096 240.707 123.943 234.121 128.229 231.931C132.514 229.741 137.607 232.782 139.609 238.721Z" fill="#F89254"/>
<path d="M79.2317 218.019C81.3453 226.411 83.0124 234.963 84.2225 243.621C85.4482 252.334 85.5392 261.231 84.4919 269.979C83.799 274.311 82.9124 278.592 81.8362 282.804C80.8483 287.011 79.8732 291.217 78.988 295.408C77.1135 303.835 75.8259 312.442 75.139 321.136C74.8139 325.461 74.8354 329.815 75.2032 334.134C75.5881 338.467 76.2039 342.768 76.8325 347.085C78.1155 355.703 79.6038 364.321 80.2325 373.113C80.5981 377.518 80.5981 381.957 80.2325 386.363C80.0311 388.578 79.6485 390.764 79.0906 392.885C78.4857 394.982 77.6849 396.986 76.7043 398.856C74.8935 402.624 73.3235 406.559 72.0085 410.625C71.3609 412.657 70.9004 414.771 70.6357 416.928C70.3062 419.082 70.5965 421.309 71.4569 423.23C70.5424 421.333 70.1846 419.109 70.4433 416.928C70.6709 414.732 71.1014 412.575 71.7263 410.499C72.976 406.373 74.4904 402.374 76.2552 398.541C77.1771 396.692 77.926 394.72 78.4876 392.665C79.0015 390.612 79.3454 388.5 79.514 386.363C79.809 382.028 79.7445 377.668 79.3215 373.349C78.5389 364.668 77.0763 356.018 75.7548 347.447C75.1005 343.13 74.4719 338.798 74.0485 334.402C73.6529 329.991 73.61 325.542 73.9202 321.121C74.6291 312.343 75.9512 303.656 77.8718 295.156C78.7698 290.902 79.7706 286.68 80.7713 282.458C81.772 278.235 82.8882 274.076 83.5169 269.853C84.6631 261.232 84.6934 252.443 83.6067 243.81C82.5666 235.114 81.1057 226.502 79.2317 218.019Z" fill="#F89254"/>
<path d="M110.203 162.656C107.902 173.418 103.543 183.351 97.4886 191.629C89.5213 202.989 81.1562 209.464 81.2974 210.614C81.7336 213.875 84.6075 218.697 84.4663 219.799C84.3252 220.902 82.1955 222.178 80.348 222.32C78.5005 222.462 76.2553 221.548 75.9858 220.477C75.7164 219.406 78.0771 214.175 78.1669 210.85C78.1669 208.519 41.2042 189.912 41.448 147.263C41.5634 125.206 52.4688 115.532 61.8346 111.262C64.4136 110.108 67.0713 109.238 69.7762 108.663C71.2794 108.336 72.7953 108.104 74.318 107.969C79.3729 107.576 107.137 106.882 111.024 141.733C111.827 148.708 111.548 155.807 110.203 162.656Z" fill="#759DA9"/>
<path d="M41.4479 147.262C41.5633 125.205 52.4687 115.531 61.8344 111.262C53.803 120.715 43.9753 139.038 53.0973 167.177C61.3982 192.731 82.1184 198.907 97.4885 191.629C89.5212 202.988 81.1561 209.463 81.2973 210.614C81.7335 213.875 84.6073 218.696 84.4662 219.799C84.3251 220.902 82.1953 222.178 80.3479 222.32C78.5004 222.461 76.2551 221.548 75.9857 220.476C75.7163 219.405 78.077 214.174 78.1668 210.85C78.2181 208.518 41.2169 189.911 41.4479 147.262Z" fill="#4B8DB2"/>
<path d="M100.452 127.884C102.903 133.556 101.581 140.315 97.4886 142.993C93.3959 145.671 88.0972 143.229 85.6339 137.558C83.1706 131.886 84.5049 125.127 88.5976 122.448C92.6903 119.77 97.989 122.212 100.452 127.884Z" fill="#759DA9"/>
<path d="M286.754 268.956C286.84 269.685 286.748 270.43 286.489 271.094C286.23 271.759 285.816 272.315 285.299 272.69C284.782 273.065 284.187 273.243 283.587 273.202C282.988 273.161 282.412 272.902 281.933 272.458C281.454 272.014 281.093 271.405 280.897 270.708C280.7 270.012 280.676 269.26 280.828 268.547C280.981 267.834 281.302 267.192 281.752 266.704C282.201 266.216 282.759 265.903 283.354 265.805C284.145 265.67 284.947 265.926 285.585 266.517C286.222 267.107 286.642 267.985 286.754 268.956Z" fill="#F89254"/>
<path d="M337.085 127.255C337.171 127.984 337.079 128.728 336.82 129.393C336.561 130.058 336.147 130.613 335.631 130.989C335.114 131.364 334.518 131.542 333.919 131.501C333.32 131.46 332.744 131.2 332.265 130.756C331.786 130.312 331.425 129.704 331.228 129.007C331.032 128.311 331.008 127.558 331.16 126.845C331.312 126.133 331.634 125.491 332.083 125.003C332.533 124.515 333.091 124.202 333.685 124.103C334.476 123.973 335.276 124.231 335.913 124.821C336.549 125.411 336.971 126.285 337.085 127.255Z" fill="#F89254"/>
<path d="M226.507 315.496C226.55 315.861 226.504 316.234 226.374 316.567C226.245 316.899 226.037 317.177 225.779 317.365C225.52 317.552 225.222 317.641 224.922 317.62C224.622 317.599 224.334 317.469 224.094 317.246C223.855 317.023 223.675 316.718 223.577 316.369C223.479 316.02 223.468 315.644 223.545 315.287C223.622 314.931 223.784 314.61 224.01 314.367C224.236 314.124 224.515 313.968 224.813 313.921C225.207 313.858 225.606 313.987 225.923 314.282C226.24 314.577 226.449 315.013 226.507 315.496Z" fill="#F89254"/>
<path d="M261.786 413.619C261.83 413.984 261.784 414.357 261.654 414.689C261.524 415.022 261.317 415.3 261.058 415.488C260.8 415.675 260.501 415.764 260.202 415.743C259.902 415.722 259.614 415.592 259.374 415.369C259.135 415.146 258.955 414.841 258.857 414.492C258.759 414.143 258.748 413.767 258.825 413.41C258.902 413.054 259.064 412.733 259.29 412.49C259.515 412.247 259.795 412.091 260.093 412.044C260.487 411.985 260.883 412.116 261.199 412.41C261.515 412.704 261.726 413.138 261.786 413.619Z" fill="#759DA9"/>
<path d="M159.828 322.98C159.871 323.344 159.825 323.716 159.696 324.048C159.566 324.381 159.359 324.658 159.101 324.846C158.844 325.033 158.546 325.123 158.247 325.102C157.947 325.082 157.66 324.953 157.42 324.732C157.18 324.511 157 324.207 156.901 323.86C156.802 323.512 156.789 323.136 156.864 322.78C156.939 322.424 157.099 322.103 157.323 321.858C157.547 321.613 157.825 321.455 158.122 321.405C158.517 321.341 158.918 321.471 159.237 321.765C159.555 322.06 159.768 322.496 159.828 322.98Z" fill="#759DA9"/>
<path d="M363.772 149.09C363.815 149.456 363.769 149.828 363.639 150.161C363.51 150.494 363.302 150.772 363.044 150.959C362.785 151.147 362.487 151.236 362.187 151.215C361.887 151.193 361.599 151.063 361.36 150.84C361.12 150.618 360.94 150.312 360.842 149.964C360.744 149.615 360.733 149.238 360.81 148.882C360.887 148.525 361.049 148.205 361.275 147.961C361.501 147.718 361.78 147.563 362.078 147.515C362.472 147.456 362.869 147.588 363.185 147.882C363.501 148.176 363.711 148.609 363.772 149.09Z" fill="#759DA9"/>
<path d="M362.231 276.565C362.275 276.93 362.228 277.303 362.099 277.636C361.969 277.969 361.762 278.247 361.503 278.434C361.244 278.622 360.946 278.711 360.646 278.69C360.346 278.668 360.058 278.538 359.819 278.315C359.58 278.093 359.399 277.787 359.302 277.439C359.204 277.09 359.193 276.713 359.27 276.357C359.347 276 359.509 275.68 359.734 275.436C359.96 275.193 360.24 275.038 360.538 274.99C360.932 274.927 361.33 275.057 361.647 275.352C361.964 275.646 362.174 276.082 362.231 276.565Z" fill="#759DA9"/>
<path d="M370.572 183.751C370.658 184.481 370.566 185.225 370.307 185.89C370.048 186.555 369.633 187.11 369.117 187.486C368.6 187.861 368.004 188.039 367.405 187.998C366.806 187.956 366.23 187.697 365.751 187.253C365.272 186.809 364.911 186.2 364.715 185.504C364.518 184.808 364.494 184.055 364.646 183.342C364.799 182.629 365.12 181.988 365.57 181.5C366.019 181.012 366.577 180.699 367.172 180.6C367.962 180.474 368.76 180.733 369.396 181.323C370.032 181.912 370.454 182.784 370.572 183.751Z" fill="#759DA9"/>
<path d="M282.701 383.685L286.986 381.936C286.986 381.936 284.061 380.077 284.061 374.327C284.061 368.576 288.076 366.307 286.344 361.092L281.572 362.668C282.106 364.036 282.401 365.526 282.439 367.043C282.476 368.56 282.255 370.069 281.79 371.475C280.532 374.799 279.378 378.722 282.701 383.685Z" fill="#F89254"/>
<path d="M405.16 101.668L400.926 99.73C400.926 99.73 402.209 103.417 399.284 107.891C396.359 112.366 392.061 111.042 390.727 116.399L395.243 118.872C395.529 117.396 396.064 116.009 396.813 114.801C397.562 113.594 398.509 112.592 399.592 111.861C402.286 110.254 405.186 108.127 405.16 101.668Z" fill="#F89254"/>
<path d="M328.952 328.888L329.568 323.389C329.568 323.389 326.925 325.784 322.716 323.231C318.508 320.679 318.637 315.259 314.069 314.865L313.107 320.805C314.344 320.824 315.564 321.16 316.688 321.792C317.813 322.424 318.818 323.339 319.637 324.476C321.498 327.344 323.858 330.274 328.952 328.888Z" fill="#759DA9"/>
<path d="M317.636 244.913L324.859 242.408C324.859 242.408 328.284 253.437 321.138 256.588C321.138 256.588 323.576 250.695 317.636 244.913Z" fill="#F89254"/>
<path d="M318.828 268.279L312.631 263.332C312.631 263.332 313.542 256.1 321.137 256.588C321.137 256.588 315.364 261.772 318.828 268.279Z" fill="#F89254"/>
<path d="M257.618 311.369L252.909 308.218C252.909 308.218 249.06 315.355 253.692 318.948C253.64 318.869 252.691 314.237 257.618 311.369Z" fill="#F89254"/>
<path d="M253.768 327.565L258.772 325.28C258.772 325.28 259.067 320.002 253.64 318.868C253.64 318.868 257.04 323.642 253.768 327.565Z" fill="#F89254"/>
<path d="M232.062 398.022L224.851 400.527C224.851 400.527 221.413 389.498 228.559 386.347C228.533 386.3 226.134 392.192 232.062 398.022Z" fill="#759DA9"/>
<path d="M230.881 374.609L237.078 379.572C237.078 379.572 236.167 386.788 228.559 386.3C228.534 386.3 234.333 381.116 230.881 374.609Z" fill="#759DA9"/>
<path d="M318.777 451.857L323.537 455.008C323.537 455.008 327.386 447.871 322.754 444.263C322.754 444.295 323.716 448.927 318.777 451.857Z" fill="#759DA9"/>
<path d="M322.627 435.614L317.623 437.899C317.623 437.899 317.341 443.161 322.755 444.295C322.755 444.295 319.355 439.522 322.627 435.614Z" fill="#759DA9"/>
<path d="M106.65 146.302C106.693 146.667 106.647 147.04 106.517 147.372C106.388 147.705 106.18 147.983 105.922 148.171C105.663 148.358 105.365 148.447 105.065 148.426C104.765 148.405 104.477 148.275 104.237 148.052C103.998 147.829 103.818 147.524 103.72 147.175C103.622 146.826 103.611 146.45 103.688 146.093C103.765 145.737 103.927 145.416 104.153 145.173C104.379 144.929 104.658 144.774 104.956 144.727C105.35 144.663 105.749 144.793 106.066 145.088C106.383 145.383 106.592 145.819 106.65 146.302Z" fill="#F89254"/>
<path d="M84.1326 275.132C84.1759 275.497 84.1298 275.87 84.0002 276.203C83.8705 276.535 83.6632 276.813 83.4045 277.001C83.1459 277.188 82.8476 277.277 82.5477 277.256C82.2478 277.235 81.9598 277.105 81.7203 276.882C81.4809 276.659 81.3008 276.354 81.203 276.005C81.1053 275.656 81.0942 275.28 81.1713 274.923C81.2483 274.567 81.41 274.246 81.6358 274.003C81.8616 273.76 82.1412 273.604 82.4391 273.557C82.8333 273.494 83.2319 273.623 83.5487 273.918C83.8656 274.213 84.0753 274.649 84.1326 275.132Z" fill="#759DA9"/>
<path d="M96.1937 339.129C96.2799 339.858 96.1876 340.603 95.9286 341.268C95.6696 341.933 95.2555 342.488 94.7389 342.863C94.2223 343.238 93.6266 343.417 93.0273 343.375C92.4281 343.334 91.8524 343.075 91.3733 342.631C90.8942 342.187 90.5334 341.578 90.3367 340.882C90.14 340.185 90.1162 339.433 90.2684 338.72C90.4207 338.007 90.742 337.366 91.1917 336.878C91.6413 336.389 92.199 336.076 92.7938 335.978C93.5842 335.847 94.3847 336.105 95.0213 336.695C95.6578 337.285 96.0792 338.16 96.1937 339.129Z" fill="#F89254"/>
<path d="M111.152 262.386L115.437 260.637C115.437 260.637 112.512 258.778 112.512 253.028C112.512 247.277 116.528 245.008 114.796 239.793L110.023 241.369C110.557 242.737 110.853 244.228 110.89 245.744C110.928 247.261 110.707 248.77 110.241 250.176C108.971 253.5 107.829 257.423 111.152 262.386Z" fill="#F89254"/>
<path d="M112.744 353.907L108.51 351.954C108.51 351.954 109.793 355.656 106.868 360.115C103.942 364.573 99.6444 363.266 98.3101 368.623L102.826 371.096C103.113 369.618 103.65 368.23 104.401 367.022C105.152 365.814 106.102 364.814 107.188 364.085C109.87 362.51 112.769 360.351 112.744 353.907Z" fill="#F89254"/>
<path d="M155.66 195.19L156.276 189.692C156.276 189.692 153.633 192.087 149.424 189.534C145.216 186.982 145.345 181.562 140.777 181.168L139.815 187.108C141.052 187.126 142.272 187.463 143.396 188.095C144.521 188.727 145.526 189.641 146.345 190.779C148.206 193.646 150.566 196.64 155.66 195.19Z" fill="#F89254"/>
<path d="M92.3307 229.946C92.2445 229.216 92.3368 228.472 92.5958 227.807C92.8548 227.142 93.2689 226.587 93.7855 226.211C94.3021 225.836 94.8978 225.658 95.4971 225.699C96.0963 225.741 96.6721 226 97.1512 226.444C97.6302 226.888 97.991 227.497 98.1877 228.193C98.3845 228.889 98.4082 229.642 98.256 230.355C98.1038 231.068 97.7824 231.709 97.3328 232.197C96.8831 232.685 96.3255 232.998 95.7306 233.097C94.9402 233.227 94.1398 232.969 93.5032 232.379C92.8666 231.789 92.4453 230.915 92.3307 229.946Z" fill="#F89254"/>
<path d="M182.833 160.891L187.593 164.042C187.593 164.042 191.442 156.905 186.811 153.313C186.811 153.344 187.773 157.977 182.833 160.891Z" fill="#759DA9"/>
<path d="M186.694 144.647L181.677 146.932C181.677 146.932 181.395 152.21 186.809 153.344C186.809 153.344 183.409 148.57 186.694 144.647Z" fill="#759DA9"/>
</svg>
